<svg preserveAspectRatio="none" width="100%" height="100%" overflow="visible" style="display: block;" viewBox="0 0 182 182" fill="none" xmlns="http://www.w3.org/2000/svg">
<g id="Group">
<path id="Vector" d="M49.7656 135.789C49.7656 125.989 41.7925 118.015 31.9922 118.015C22.1919 118.015 14.2188 125.989 14.2188 135.789C14.2188 145.589 22.1919 153.562 31.9922 153.562C41.7925 153.562 49.7656 145.59 49.7656 135.789ZM31.9922 146.453C26.112 146.453 21.3281 141.669 21.3281 135.789C21.3281 129.909 26.112 125.125 31.9922 125.125C37.8724 125.125 42.6562 129.909 42.6562 135.789C42.6562 141.669 37.8724 146.453 31.9922 146.453Z" fill="var(--fill-0, white)"/>
<path id="Vector_2" d="M108.773 135.789C108.773 125.989 100.8 118.015 91 118.015C81.1997 118.015 73.2266 125.989 73.2266 135.789C73.2266 145.589 81.1997 153.562 91 153.562C100.8 153.562 108.773 145.59 108.773 135.789ZM91 146.453C85.1198 146.453 80.3359 141.669 80.3359 135.789C80.3359 129.909 85.1198 125.125 91 125.125C96.8802 125.125 101.664 129.909 101.664 135.789C101.664 141.669 96.8802 146.453 91 146.453Z" fill="var(--fill-0, white)"/>
<path id="Vector_3" d="M167.781 135.789C167.781 125.989 159.808 118.015 150.008 118.015C140.208 118.015 132.234 125.989 132.234 135.789C132.234 145.589 140.208 153.562 150.008 153.562C159.808 153.562 167.781 145.59 167.781 135.789ZM150.008 146.453C144.128 146.453 139.344 141.669 139.344 135.789C139.344 129.909 144.128 125.125 150.008 125.125C155.888 125.125 160.672 129.909 160.672 135.789C160.672 141.669 155.888 146.453 150.008 146.453Z" fill="var(--fill-0, white)"/>
<path id="Vector_4" d="M157.117 153.562H142.898C133.857 153.562 125.928 158.411 121.57 165.644C117.213 158.412 109.284 153.562 100.242 153.562H81.7578C72.7161 153.562 64.787 158.411 60.4297 165.644C56.0724 158.412 48.1433 153.562 39.1016 153.562H24.8828C11.1624 153.562 0 164.725 0 178.445C0 180.408 1.59143 182 3.55469 182H75.0039C76.9672 182 78.5586 180.408 78.5586 178.445C78.5586 176.482 76.9672 174.89 75.0039 174.89H64.3413C65.9928 166.788 73.1747 160.672 81.7578 160.672H100.242C108.825 160.672 116.007 166.788 117.659 174.89H106.996C105.033 174.89 103.441 176.482 103.441 178.445C103.441 180.408 105.033 182 106.996 182H178.445C180.409 182 182 180.408 182 178.445C182 164.725 170.838 153.562 157.117 153.562ZM7.46662 174.89C9.11813 166.788 16.3 160.672 24.8832 160.672H39.1019C47.6851 160.672 54.8666 166.788 56.5185 174.89H7.46662ZM125.482 174.89C127.134 166.788 134.316 160.672 142.899 160.672H157.118C165.701 160.672 172.882 166.788 174.534 174.89H125.482Z" fill="var(--fill-0, white)"/>
<path id="Vector_5" d="M144.32 81.7576V95.9764C144.32 97.9393 145.912 99.5311 147.875 99.5311H162.094C164.057 99.5311 165.648 97.9393 165.648 95.9764V81.7576C165.648 77.1237 162.676 73.1724 158.539 71.705V31.992C158.539 29.5837 156.416 28.754 156.38 28.7228C156.374 28.7203 156.368 28.7171 156.362 28.7146L92.4439 0.306592C91.5247 -0.102197 90.4757 -0.102197 89.5564 0.306592L25.5721 28.7441C24.2885 29.3143 23.4609 30.5872 23.4609 31.992C23.4609 33.3965 24.2881 34.6698 25.5717 35.2403L51.8984 46.9412V67.9694C51.8984 69.3742 52.726 70.6471 54.0096 71.218L89.5564 87.015C90.0157 87.2191 90.508 87.3211 91 87.3211C91.492 87.3211 91.9843 87.2191 92.4436 87.015L127.99 71.218C129.274 70.6475 130.102 69.3742 130.102 67.9694V46.9412L151.43 37.462V71.7053C147.292 73.1727 144.32 77.1237 144.32 81.7576ZM158.539 92.4217H151.43V81.7576C151.43 79.7976 153.024 78.2029 154.984 78.2029C156.944 78.2029 158.539 79.7976 158.539 81.7576V92.4217ZM91 7.44476L138.234 28.4373H91C89.0367 28.4373 87.4453 30.0291 87.4453 31.992C87.4453 33.9549 89.0367 35.5467 91 35.5467H138.235L91 56.5396L35.7676 31.9924L91 7.44476ZM122.992 65.6588L91 79.8761L59.0078 65.6588V50.1007L89.5564 63.6778C90.0157 63.8818 90.508 63.9838 91 63.9838C91.492 63.9838 91.9843 63.8818 92.4436 63.6778L122.992 50.101V65.6588Z" fill="var(--fill-0, #FF6A29)"/>
<path id="Vector_6" d="M91 182C92.9632 182 94.5547 180.408 94.5547 178.445C94.5547 176.482 92.9632 174.89 91 174.89C89.0368 174.89 87.4453 176.482 87.4453 178.445C87.4453 180.408 89.0368 182 91 182Z" fill="var(--fill-0, white)"/>
</g>
</svg>
