<svg preserveAspectRatio="none" width="100%" height="100%" overflow="visible" style="display: block;" viewBox="0 0 200 200" fill="none" xmlns="http://www.w3.org/2000/svg">
<g id="fi_8729048">
<path id="Vector" d="M190.625 130.25C190.408 129.603 189.984 129.045 189.42 128.662C188.856 128.278 188.181 128.089 187.5 128.125H137.5C136.819 128.089 136.144 128.278 135.58 128.662C135.016 129.045 134.592 129.603 134.375 130.25L128.125 149C127.97 149.47 127.929 149.97 128.005 150.459C128.081 150.948 128.272 151.412 128.563 151.812C128.865 152.239 129.27 152.582 129.739 152.811C130.209 153.04 130.728 153.148 131.25 153.125H134.375V193.75C134.375 194.579 134.704 195.374 135.29 195.96C135.876 196.546 136.671 196.875 137.5 196.875H187.5C188.329 196.875 189.124 196.546 189.71 195.96C190.296 195.374 190.625 194.579 190.625 193.75V153.125H193.75C194.246 153.123 194.734 153.002 195.174 152.774C195.614 152.546 195.994 152.216 196.281 151.812C196.572 151.412 196.763 150.948 196.839 150.459C196.915 149.97 196.874 149.47 196.719 149L190.625 130.25ZM189.406 146.875H180.781L178.688 134.375H185.25L189.406 146.875ZM150.563 146.875L152.656 134.375H159.375V146.875H150.563ZM165.625 134.375H172.344L174.438 146.875H165.625V134.375ZM139.75 134.375H146.313L144.219 146.875H135.594L139.75 134.375ZM156.25 190.625V178.125H168.75V190.625H156.25ZM184.375 190.625H175V175C175 174.171 174.671 173.376 174.085 172.79C173.499 172.204 172.704 171.875 171.875 171.875H153.125C152.296 171.875 151.501 172.204 150.915 172.79C150.329 173.376 150 174.171 150 175V190.625H140.625V153.125H184.375V190.625Z" fill="var(--fill-0, white)"/>
<path id="Vector_2" d="M121.875 153.125H103.125C102.296 153.125 101.501 153.454 100.915 154.04C100.329 154.626 100 155.421 100 156.25V171.875H84.375C83.5462 171.875 82.7513 172.204 82.1653 172.79C81.5792 173.376 81.25 174.171 81.25 175V193.75C81.25 194.579 81.5792 195.374 82.1653 195.96C82.7513 196.546 83.5462 196.875 84.375 196.875H121.875C122.704 196.875 123.499 196.546 124.085 195.96C124.671 195.374 125 194.579 125 193.75V156.25C125 155.421 124.671 154.626 124.085 154.04C123.499 153.454 122.704 153.125 121.875 153.125ZM106.25 159.375H118.75V171.875H106.25V159.375ZM87.5 178.125H100V190.625H87.5V178.125ZM118.75 190.625H106.25V178.125H118.75V190.625Z" fill="var(--fill-0, #FF6A29)"/>
<path id="Vector_3" d="M6.25 63.2812H37.5C38.3288 63.2812 39.1237 62.952 39.7097 62.366C40.2958 61.7799 40.625 60.985 40.625 60.1562V38.6875C40.6166 35.8037 39.6426 33.0058 37.8584 30.7402C36.0742 28.4746 33.5827 26.8718 30.7813 26.1875C32.7722 24.3878 34.1712 22.0271 34.7938 19.4165C35.4165 16.8059 35.2337 14.0679 34.2694 11.5633C33.3052 9.05872 31.6048 6.905 29.3922 5.38596C27.1797 3.86691 24.5588 3.05382 21.875 3.05382C19.1912 3.05382 16.5703 3.86691 14.3578 5.38596C12.1452 6.905 10.4448 9.05872 9.48056 11.5633C8.51631 14.0679 8.33348 16.8059 8.95616 19.4165C9.57884 22.0271 10.9778 24.3878 12.9688 26.1875C10.1673 26.8718 7.67575 28.4746 5.89158 30.7402C4.1074 33.0058 3.13341 35.8037 3.125 38.6875V60.1562C3.125 60.985 3.45424 61.7799 4.04029 62.366C4.33047 62.6561 4.67497 62.8863 5.05411 63.0434C5.43326 63.2004 5.83962 63.2812 6.25 63.2812ZM21.875 9.375C23.2656 9.375 24.6251 9.78738 25.7814 10.56C26.9376 11.3326 27.8388 12.4307 28.371 13.7155C28.9032 15.0003 29.0424 16.4141 28.7711 17.778C28.4998 19.1419 27.8302 20.3948 26.8468 21.3781C25.8635 22.3614 24.6107 23.0311 23.2467 23.3024C21.8828 23.5737 20.4691 23.4345 19.1843 22.9023C17.8995 22.3701 16.8013 21.4689 16.0287 20.3126C15.2561 19.1563 14.8438 17.7969 14.8438 16.4063C14.8438 14.5414 15.5845 12.753 16.9032 11.4344C18.2218 10.1158 20.0102 9.375 21.875 9.375ZM9.375 38.6875C9.375 36.9222 10.0763 35.2291 11.3246 33.9808C12.5729 32.7325 14.2659 32.0313 16.0313 32.0313H27.75C28.6226 32.0312 29.4867 32.2036 30.2925 32.5385C31.0983 32.8734 31.8301 33.3642 32.4457 33.9827C33.0613 34.6012 33.5486 35.3352 33.8797 36.1426C34.2108 36.95 34.3791 37.8149 34.375 38.6875V57.0312H9.375V38.6875Z" fill="var(--fill-0, white)"/>
<path id="Vector_4" d="M46.875 38.6875V60.1562C46.875 60.985 47.2042 61.7799 47.7903 62.366C48.3763 62.952 49.1712 63.2812 50 63.2812H81.25C82.0788 63.2812 82.8737 62.952 83.4597 62.366C84.0458 61.7799 84.375 60.985 84.375 60.1562V38.6875C84.3666 35.8037 83.3926 33.0058 81.6084 30.7402C79.8243 28.4746 77.3327 26.8718 74.5313 26.1875C76.5222 24.3878 77.9212 22.0271 78.5438 19.4165C79.1665 16.8059 78.9837 14.0679 78.0194 11.5633C77.0552 9.05872 75.3548 6.905 73.1422 5.38596C70.9297 3.86691 68.3088 3.05382 65.625 3.05382C62.9412 3.05382 60.3203 3.86691 58.1078 5.38596C55.8952 6.905 54.1948 9.05872 53.2306 11.5633C52.2663 14.0679 52.0835 16.8059 52.7062 19.4165C53.3288 22.0271 54.7278 24.3878 56.7187 26.1875C53.9173 26.8718 51.4258 28.4746 49.6416 30.7402C47.8574 33.0058 46.8834 35.8037 46.875 38.6875ZM65.625 9.375C67.0156 9.375 68.3751 9.78738 69.5314 10.56C70.6876 11.3326 71.5889 12.4307 72.121 13.7155C72.6532 15.0003 72.7924 16.4141 72.5211 17.778C72.2498 19.1419 71.5802 20.3948 70.5968 21.3781C69.6135 22.3614 68.3607 23.0311 66.9967 23.3024C65.6328 23.5737 64.219 23.4345 62.9343 22.9023C61.6495 22.3701 60.5513 21.4689 59.7787 20.3126C59.0061 19.1563 58.5938 17.7969 58.5938 16.4063C58.5938 14.5414 59.3345 12.753 60.6532 11.4344C61.9718 10.1158 63.7602 9.375 65.625 9.375ZM53.125 38.6875C53.125 36.9222 53.8263 35.2291 55.0746 33.9808C56.3229 32.7325 58.0159 32.0313 59.7812 32.0313H71.5C72.3726 32.0312 73.2367 32.2036 74.0425 32.5385C74.8483 32.8734 75.5801 33.3642 76.1957 33.9827C76.8113 34.6012 77.2986 35.3352 77.6297 36.1426C77.9608 36.95 78.1291 37.8149 78.125 38.6875V57.0312H53.125V38.6875Z" fill="var(--fill-0, white)"/>
<path id="Vector_5" d="M165.625 72.8437C164.893 64.8105 161.155 57.3499 155.157 51.9553C149.16 46.5607 141.347 43.6301 133.281 43.75H100C99.1712 43.75 98.3763 44.0792 97.7903 44.6653C97.2042 45.2513 96.875 46.0462 96.875 46.875C96.875 47.7038 97.2042 48.4987 97.7903 49.0847C98.3763 49.6708 99.1712 50 100 50H134.375C137.808 49.9919 141.206 50.6908 144.356 52.0533C147.507 53.4157 150.344 55.4125 152.689 57.9192C155.035 60.4258 156.839 63.3887 157.989 66.623C159.139 69.8574 159.611 73.294 159.375 76.7187C158.8 83.1498 155.812 89.1249 151.012 93.4436C146.212 97.7623 139.956 100.105 133.5 100H65.625C61.3333 99.9898 57.0854 100.864 53.1463 102.567C49.2071 104.271 45.6611 106.767 42.7292 109.902C39.7973 113.036 37.5424 116.74 36.1051 120.784C34.6678 124.828 34.0789 129.125 34.375 133.406C35.1067 141.439 38.8453 148.9 44.8426 154.295C50.8398 159.689 58.6531 162.62 66.7187 162.5H84.375C85.2038 162.5 85.9987 162.171 86.5847 161.585C87.1708 160.999 87.5 160.204 87.5 159.375C87.5 158.546 87.1708 157.751 86.5847 157.165C85.9987 156.579 85.2038 156.25 84.375 156.25H65.625C62.1922 156.258 58.7945 155.559 55.6436 154.197C52.4927 152.834 49.6562 150.837 47.3108 148.331C44.9654 145.824 43.1613 142.861 42.0111 139.627C40.8608 136.393 40.389 132.956 40.625 129.531C41.2004 123.1 44.1881 117.125 48.9879 112.806C53.7878 108.488 60.0441 106.145 66.5 106.25H134.375C138.667 106.26 142.915 105.386 146.854 103.683C150.793 101.979 154.339 99.4826 157.271 96.3484C160.203 93.2142 162.458 89.5097 163.895 85.4658C165.332 81.4219 165.921 77.1253 165.625 72.8437Z" fill="var(--fill-0, #FF6A29)"/>
</g>
</svg>
