<svg preserveAspectRatio="none" width="100%" height="100%" overflow="visible" style="display: block;" viewBox="0 0 220 220" fill="none" xmlns="http://www.w3.org/2000/svg">
<g id="fi_4249182">
<path id="Vector" d="M48.2694 201.221L62.6038 215.555C63.2484 216.2 64.1226 216.562 65.0341 216.562C65.9456 216.562 66.8197 216.2 67.4644 215.555L76.0581 206.962C76.7026 206.317 77.0646 205.443 77.0646 204.531C77.0646 203.62 76.7026 202.746 76.0581 202.101L61.7237 187.767C61.067 187.146 60.1974 186.799 59.2934 186.799C58.3895 186.799 57.5199 187.146 56.8631 187.767L55 189.63L49.6444 184.274C53.6092 179.073 55.4496 172.561 54.7928 166.054C54.136 159.548 51.0312 153.534 46.107 149.23C41.1828 144.927 34.8073 142.656 28.2714 142.877C21.7356 143.098 15.5279 145.794 10.9054 150.42C6.28282 155.045 3.59091 161.255 3.37474 167.791C3.15857 174.327 5.43428 180.701 9.74106 185.622C14.0478 190.543 20.0638 193.644 26.5708 194.296C33.0778 194.948 39.5894 193.103 44.7872 189.135L50.1394 194.49L48.2694 196.36C47.6249 197.005 47.2629 197.879 47.2629 198.791C47.2629 199.702 47.6249 200.576 48.2694 201.221ZM59.3003 195.033L68.7741 204.531L65.0341 208.271L55.5603 198.791L59.3003 195.033ZM42.5356 182.009C39.898 184.644 36.5384 186.437 32.8814 187.163C29.2245 187.889 25.4345 187.515 21.9904 186.087C18.5463 184.659 15.6027 182.243 13.5318 179.143C11.4609 176.042 10.3556 172.398 10.3556 168.67C10.3556 164.941 11.4609 161.297 13.5318 158.196C15.6027 155.096 18.5463 152.68 21.9904 151.252C25.4345 149.824 29.2245 149.45 32.8814 150.176C36.5384 150.902 39.898 152.695 42.5356 155.33C44.3052 157.074 45.7104 159.152 46.6696 161.443C47.6288 163.735 48.1227 166.194 48.1227 168.678C48.1227 171.162 47.6288 173.622 46.6696 175.913C45.7104 178.205 44.3052 180.282 42.5356 182.026V182.009Z" fill="var(--fill-0, white)"/>
<path id="Vector_2" d="M202.812 168.437H198.667C201.185 166.443 203.019 163.715 203.916 160.631C204.813 157.547 204.727 154.26 203.672 151.227C202.616 148.194 200.642 145.564 198.024 143.703C195.406 141.843 192.274 140.843 189.062 140.843C185.851 140.843 182.719 141.843 180.101 143.703C177.483 145.564 175.509 148.194 174.453 151.227C173.398 154.26 173.312 157.547 174.209 160.631C175.106 163.715 176.94 166.443 179.458 168.437H175.312C171.666 168.437 168.168 169.886 165.59 172.465C163.011 175.043 161.562 178.541 161.562 182.187V213.125C161.562 214.037 161.925 214.911 162.569 215.556C163.214 216.2 164.088 216.562 165 216.562H213.125C214.037 216.562 214.911 216.2 215.556 215.556C216.2 214.911 216.562 214.037 216.562 213.125V182.187C216.562 178.541 215.114 175.043 212.535 172.465C209.957 169.886 206.459 168.437 202.812 168.437ZM189.062 147.812C190.762 147.812 192.424 148.317 193.837 149.261C195.25 150.205 196.352 151.547 197.002 153.118C197.653 154.688 197.823 156.416 197.491 158.083C197.16 159.75 196.341 161.281 195.139 162.483C193.937 163.685 192.406 164.503 190.739 164.835C189.072 165.166 187.344 164.996 185.774 164.346C184.204 163.695 182.861 162.594 181.917 161.181C180.973 159.767 180.469 158.106 180.469 156.406C180.469 154.127 181.374 151.941 182.986 150.33C184.597 148.718 186.783 147.812 189.062 147.812ZM209.688 209.687H168.438V182.187C168.438 180.364 169.162 178.615 170.451 177.326C171.74 176.037 173.489 175.312 175.312 175.312H202.812C204.636 175.312 206.385 176.037 207.674 177.326C208.963 178.615 209.688 180.364 209.688 182.187V209.687Z" fill="var(--fill-0, white)"/>
<path id="Vector_3" d="M45.6534 47.9669C34.7029 59.2903 26.9387 73.3061 23.1472 88.5953C19.3557 103.884 19.6715 119.904 24.0625 135.032L30.6556 133.093C26.6092 119.132 26.3219 104.35 29.8229 90.242C33.3239 76.1342 40.4889 63.2014 50.5931 52.7519L45.6534 47.9669Z" fill="var(--fill-0, #FF6A29)"/>
<path id="Vector_4" d="M152.903 188.468L149.597 182.442C137.424 189.104 123.773 192.598 109.897 192.603C102.117 192.618 94.3754 191.519 86.9069 189.341L84.9681 195.937C93.0661 198.301 101.461 199.494 109.897 199.478C124.929 199.473 139.718 195.687 152.903 188.468Z" fill="var(--fill-0, #FF6A29)"/>
<path id="Vector_5" d="M196.659 131.464C198.402 124.478 199.28 117.303 199.272 110.103C199.325 87.0231 190.387 64.8297 174.353 48.2281L169.397 52.9959C184.196 68.3177 192.446 88.8012 192.397 110.103C192.403 116.738 191.595 123.348 189.991 129.786L196.659 131.464Z" fill="var(--fill-0, #FF6A29)"/>
<path id="Vector_6" d="M90.3684 147.441L92.0356 146.493C94.0274 147.946 96.1882 149.152 98.4706 150.085V151.718C98.4915 153.435 99.1926 155.074 100.42 156.275C101.648 157.476 103.302 158.142 105.019 158.125H114.988C116.705 158.142 118.359 157.476 119.587 156.275C120.814 155.074 121.515 153.435 121.536 151.718V150.081C123.8 149.187 125.917 147.958 127.817 146.437L129.638 147.441C131.13 148.258 132.878 148.472 134.522 148.041C136.167 147.609 137.584 146.564 138.483 145.121L143.471 136.871C143.911 136.145 144.199 135.338 144.317 134.498C144.435 133.657 144.381 132.802 144.158 131.983C143.934 131.147 143.542 130.365 143.006 129.686C142.47 129.006 141.801 128.443 141.041 128.03L139.514 127.188C139.809 124.905 139.809 122.595 139.514 120.313L141.044 119.467C141.805 119.054 142.474 118.491 143.01 117.811C143.546 117.131 143.938 116.35 144.162 115.514C144.385 114.694 144.44 113.838 144.321 112.997C144.203 112.156 143.915 111.348 143.474 110.622L138.493 102.372C137.597 100.925 136.179 99.8776 134.533 99.4452C132.887 99.0128 131.137 99.2288 129.645 100.048L127.978 100.997C125.986 99.5438 123.826 98.3376 121.543 97.405V95.7722C121.52 94.0542 120.815 92.4158 119.585 91.2164C118.355 90.0171 116.699 89.3548 114.981 89.375H105.012C103.298 89.3631 101.648 90.0304 100.424 91.2311C99.2005 92.4317 98.5018 94.0681 98.4809 95.7825V97.4188C96.2175 98.3134 94.1007 99.5416 92.2006 101.063L90.3787 100.059C88.8871 99.2423 87.1396 99.0279 85.4948 99.4594C83.85 99.8908 82.4328 100.936 81.5341 102.379L76.5462 110.629C76.1063 111.355 75.8185 112.162 75.7003 113.003C75.5821 113.843 75.636 114.698 75.8588 115.517C76.0829 116.353 76.475 117.135 77.011 117.814C77.547 118.494 78.2158 119.058 78.9766 119.47L80.5062 120.316C80.2117 122.598 80.2117 124.909 80.5062 127.191L78.9766 128.037C78.2158 128.449 77.547 129.013 77.011 129.692C76.475 130.372 76.0829 131.154 75.8588 131.99C75.6354 132.809 75.5811 133.665 75.6993 134.506C75.8175 135.347 76.1057 136.155 76.5462 136.881L81.5272 145.131C82.4275 146.572 83.8448 147.614 85.4887 148.044C87.1325 148.473 88.8784 148.258 90.3684 147.441ZM87.1406 123.75C87.1406 122.776 87.2119 121.802 87.3538 120.838C87.517 119.567 87.2914 118.276 86.7067 117.135C86.1219 115.995 85.2054 115.058 84.0778 114.448L82.7028 113.699L87.2403 106.191L88.8594 107.082C89.9884 107.688 91.2665 107.961 92.5446 107.868C93.8227 107.776 95.0482 107.322 96.0781 106.559C97.6401 105.413 99.3401 104.468 101.138 103.747C102.356 103.288 103.407 102.472 104.154 101.406C104.901 100.341 105.309 99.0743 105.325 97.7728V96.25H114.634V97.7728C114.65 99.0737 115.058 100.34 115.804 101.405C116.55 102.471 117.6 103.287 118.817 103.747C120.623 104.468 122.331 105.414 123.901 106.563C124.931 107.326 126.156 107.781 127.434 107.874C128.712 107.967 129.991 107.695 131.12 107.088L132.739 106.198L137.277 113.706L135.902 114.455C134.772 115.064 133.855 116.001 133.27 117.143C132.685 118.284 132.46 119.577 132.626 120.849C132.773 121.809 132.851 122.779 132.859 123.75C132.859 124.724 132.788 125.698 132.646 126.662C132.483 127.933 132.709 129.224 133.293 130.365C133.878 131.505 134.795 132.442 135.922 133.052L137.297 133.801L132.76 141.309L131.141 140.418C130.012 139.813 128.733 139.54 127.455 139.633C126.177 139.725 124.952 140.179 123.922 140.941C122.36 142.087 120.66 143.032 118.862 143.753C117.644 144.212 116.593 145.028 115.846 146.094C115.099 147.159 114.691 148.426 114.675 149.727V151.25H105.346V149.727C105.329 148.426 104.922 147.16 104.175 146.095C103.429 145.029 102.379 144.213 101.162 143.753C99.3632 143.03 97.6621 142.084 96.0987 140.938C95.0693 140.174 93.844 139.719 92.5658 139.626C91.2875 139.533 90.0092 139.805 88.88 140.412L87.2609 141.302L82.7234 133.794L84.0984 133.045C85.2276 132.436 86.1454 131.499 86.7303 130.357C87.3153 129.216 87.5398 127.923 87.3744 126.651C87.2275 125.691 87.1494 124.721 87.1406 123.75Z" fill="var(--fill-0, #FF6A29)"/>
<path id="Vector_7" d="M110 137.5C112.719 137.5 115.378 136.694 117.639 135.183C119.9 133.672 121.663 131.524 122.703 129.012C123.744 126.499 124.016 123.735 123.486 121.068C122.955 118.4 121.646 115.95 119.723 114.027C117.8 112.104 115.35 110.795 112.682 110.264C110.015 109.734 107.251 110.006 104.738 111.047C102.226 112.087 100.078 113.85 98.5673 116.111C97.0564 118.372 96.25 121.031 96.25 123.75C96.25 127.397 97.6987 130.894 100.277 133.473C102.856 136.051 106.353 137.5 110 137.5ZM110 116.875C111.36 116.875 112.689 117.278 113.82 118.034C114.95 118.789 115.831 119.863 116.352 121.119C116.872 122.375 117.008 123.758 116.743 125.091C116.478 126.425 115.823 127.65 114.861 128.611C113.9 129.573 112.675 130.228 111.341 130.493C110.008 130.758 108.625 130.622 107.369 130.102C106.113 129.581 105.039 128.7 104.284 127.57C103.528 126.439 103.125 125.11 103.125 123.75C103.125 121.927 103.849 120.178 105.139 118.889C106.428 117.599 108.177 116.875 110 116.875Z" fill="var(--fill-0, #FF6A29)"/>
<path id="Vector_8" d="M68.75 17.1875H51.5625V24.0625H68.75V17.1875Z" fill="var(--fill-0, white)"/>
<path id="Vector_9" d="M75.625 30.9375H58.4375V37.8125H75.625V30.9375Z" fill="var(--fill-0, white)"/>
<path id="Vector_10" d="M143.622 15.0391C143.3 14.6366 142.891 14.3118 142.427 14.0887C141.962 13.8656 141.453 13.7498 140.938 13.75H123.75V6.875C123.75 5.96332 123.388 5.08898 122.743 4.44432C122.099 3.79966 121.224 3.4375 120.312 3.4375H65.3125C64.4008 3.4375 63.5265 3.79966 62.8818 4.44432C62.2372 5.08898 61.875 5.96332 61.875 6.875V13.75H68.75V10.3125H116.875V61.875H95.6175C94.9175 59.8656 93.6095 58.1239 91.8749 56.8914C90.1404 55.6589 88.0653 54.9968 85.9375 54.9968C83.8097 54.9968 81.7346 55.6589 80.0001 56.8914C78.2655 58.1239 76.9575 59.8656 76.2575 61.875H68.75V41.25H61.875V65.3125C61.875 66.2242 62.2372 67.0985 62.8818 67.7432C63.5265 68.3878 64.4008 68.75 65.3125 68.75H76.2575C76.9575 70.7594 78.2655 72.5011 80.0001 73.7336C81.7346 74.9661 83.8097 75.6283 85.9375 75.6283C88.0653 75.6283 90.1404 74.9661 91.8749 73.7336C93.6095 72.5011 94.9175 70.7594 95.6175 68.75H127.82C128.52 70.7594 129.828 72.5011 131.563 73.7336C133.297 74.9661 135.372 75.6283 137.5 75.6283C139.628 75.6283 141.703 74.9661 143.437 73.7336C145.172 72.5011 146.48 70.7594 147.18 68.75H154.688C155.599 68.75 156.474 68.3878 157.118 67.7432C157.763 67.0985 158.125 66.2242 158.125 65.3125V34.375C158.125 33.5941 157.86 32.8364 157.372 32.2266L143.622 15.0391ZM85.9375 68.75C85.2576 68.75 84.593 68.5484 84.0277 68.1707C83.4624 67.793 83.0218 67.2561 82.7617 66.628C82.5015 65.9999 82.4334 65.3087 82.5661 64.6419C82.6987 63.9751 83.0261 63.3626 83.5068 62.8818C83.9876 62.4011 84.6001 62.0737 85.2669 61.9411C85.9337 61.8084 86.6249 61.8765 87.253 62.1367C87.8811 62.3968 88.418 62.8374 88.7957 63.4027C89.1734 63.968 89.375 64.6326 89.375 65.3125C89.375 66.2242 89.0128 67.0985 88.3682 67.7432C87.7235 68.3878 86.8492 68.75 85.9375 68.75ZM134.062 20.625H139.288L147.537 30.9375H134.062V20.625ZM137.5 68.75C136.82 68.75 136.156 68.5484 135.59 68.1707C135.025 67.793 134.584 67.2561 134.324 66.628C134.064 65.9999 133.996 65.3087 134.129 64.6419C134.261 63.9751 134.589 63.3626 135.069 62.8818C135.55 62.4011 136.163 62.0737 136.829 61.9411C137.496 61.8084 138.187 61.8765 138.815 62.1367C139.444 62.3968 139.98 62.8374 140.358 63.4027C140.736 63.968 140.938 64.6326 140.938 65.3125C140.938 66.2242 140.575 67.0985 139.931 67.7432C139.286 68.3878 138.412 68.75 137.5 68.75ZM151.25 61.875H147.18C146.48 59.8656 145.172 58.1239 143.437 56.8914C141.703 55.6589 139.628 54.9968 137.5 54.9968C135.372 54.9968 133.297 55.6589 131.563 56.8914C129.828 58.1239 128.52 59.8656 127.82 61.875H123.75V20.625H127.188V34.375C127.188 35.2867 127.55 36.161 128.194 36.8057C128.839 37.4503 129.713 37.8125 130.625 37.8125H151.25V61.875Z" fill="var(--fill-0, white)"/>
</g>
</svg>
