<svg preserveAspectRatio="none" width="100%" height="100%" overflow="visible" style="display: block;" viewBox="0 0 87.0132 101.498" fill="none" xmlns="http://www.w3.org/2000/svg">
<g id="01-Play">
<path id="Vector" d="M80.3663 37.5912L18.125 1.63125C16.3458 0.578624 14.3197 0.0158057 12.2525 0C9.00294 0 5.88646 1.29088 3.58867 3.58867C1.29089 5.88646 0 9.00294 0 12.2525V89.4288C0.000413275 91.5852 0.578483 93.7021 1.6741 95.5595C2.76973 97.4169 4.3429 98.9468 6.23005 99.9903C8.1172 101.034 10.2494 101.553 12.405 101.493C14.5606 101.433 16.6609 100.797 18.4875 99.6512L80.8013 60.2837C82.7388 59.0712 84.3292 57.3773 85.4174 55.3673C86.5056 53.3573 87.0546 51.0996 87.0108 48.8143C86.967 46.529 86.3319 44.294 85.1674 42.3272C84.003 40.3603 82.3488 38.7287 80.3663 37.5912Z" fill="url(#paint0_linear_0_4)"/>
</g>
<defs>
<linearGradient id="paint0_linear_0_4" x1="0" y1="50.7488" x2="87.0132" y2="50.7488" gradientUnits="userSpaceOnUse">
<stop stop-color="#FF5410"/>
<stop offset="0.754808" stop-color="#FF733B"/>
</linearGradient>
</defs>
</svg>
