<svg preserveAspectRatio="none" width="100%" height="100%" overflow="visible" style="display: block;" viewBox="0 0 52 52" fill="none" xmlns="http://www.w3.org/2000/svg">
<g id="fi_1827938" clip-path="url(#clip0_0_4)">
<path id="Vector" d="M35.1743 52H8.09128C4.80438 52 2.13281 49.3284 2.13281 46.0415V16.7915C2.13281 13.5046 4.80438 10.8335 8.09128 10.8335H9.17435C10.0713 10.8335 10.7993 11.5615 10.7993 12.4585C10.7993 13.3555 10.0713 14.0835 9.17435 14.0835H8.09128C6.59839 14.0835 5.38281 15.2986 5.38281 16.7915V46.0415C5.38281 47.5344 6.59839 48.75 8.09128 48.75H35.1743C36.6672 48.75 37.8828 47.5344 37.8828 46.0415V44.9585C37.8828 44.0615 38.6108 43.3335 39.5078 43.3335C40.4048 43.3335 41.1328 44.0615 41.1328 44.9585V46.0415C41.1328 49.3284 38.4612 52 35.1743 52Z" fill="var(--fill-0, white)"/>
<path id="Vector_2" d="M43.8413 39H21.0913C17.8044 39 15.1328 36.3284 15.1328 33.0415V5.95846C15.1328 2.67157 17.8044 -7.7486e-07 21.0913 -7.7486e-07H43.8413C47.1282 -7.7486e-07 49.7993 2.67157 49.7993 5.95846V33.0415C49.7993 36.3284 47.1282 39 43.8413 39ZM21.0913 3.25C19.5984 3.25 18.3828 4.46558 18.3828 5.95846V33.0415C18.3828 34.5344 19.5984 35.75 21.0913 35.75H43.8413C45.3342 35.75 46.5493 34.5344 46.5493 33.0415V5.95846C46.5493 4.46558 45.3342 3.25 43.8413 3.25H21.0913Z" fill="var(--fill-0, white)"/>
</g>
<defs>
<clipPath id="clip0_0_4">
<rect width="52" height="52" fill="white"/>
</clipPath>
</defs>
</svg>
