<svg preserveAspectRatio="none" width="100%" height="100%" overflow="visible" style="display: block;" viewBox="0 0 88 88" fill="none" xmlns="http://www.w3.org/2000/svg">
<g id="Group">
<path id="Vector" d="M44 0C19.7384 0 0 19.7384 0 44C0 68.2616 19.7384 88 44 88C68.2616 88 88 68.2616 88 44C88 19.7384 68.2616 0 44 0ZM44 80C24.1493 80 8 63.8504 8 44C8 24.1496 24.1493 8 44 8C63.8507 8 80 24.1496 80 44C80 63.8504 63.8504 80 44 80Z" fill="var(--fill-0, #FF6A29)"/>
<path id="Vector_2" d="M60.4992 28.4437L37.8715 51.0712L27.5008 40.7003C25.9389 39.1384 23.4061 39.1381 21.844 40.7C20.2819 42.2621 20.2819 44.7947 21.844 46.3568L35.0429 59.5563C35.7931 60.3064 36.8104 60.728 37.8712 60.728H37.8715C38.9323 60.728 39.9496 60.3064 40.6997 59.5565L66.156 34.1008C67.7181 32.5387 67.7181 30.0061 66.156 28.444C64.5939 26.8819 62.0613 26.8816 60.4992 28.4437Z" fill="var(--fill-0, #FF6A29)"/>
</g>
</svg>
