<svg preserveAspectRatio="none" width="100%" height="100%" overflow="visible" style="display: block;" viewBox="0 0 96 96" fill="none" xmlns="http://www.w3.org/2000/svg">
<g id="fi_3114815">
<path id="Vector" d="M48 4C39.2976 4 30.7907 6.58055 23.5549 11.4153C16.3191 16.2501 10.6796 23.122 7.3493 31.1619C4.01904 39.2019 3.1477 48.0488 4.84545 56.584C6.5432 65.1191 10.7338 72.9592 16.8873 79.1127C23.0408 85.2662 30.8809 89.4568 39.416 91.1546C47.9512 92.8523 56.7981 91.981 64.8381 88.6507C72.878 85.3204 79.7499 79.6809 84.5847 72.4451C89.4195 65.2093 92 56.7024 92 48C91.9863 36.3347 87.3461 25.1511 79.0975 16.9025C70.8489 8.65388 59.6653 4.01376 48 4ZM48 84C40.8799 84 33.9196 81.8886 27.9995 77.9329C22.0793 73.9772 17.4651 68.3547 14.7403 61.7766C12.0156 55.1985 11.3027 47.9601 12.6917 40.9768C14.0808 33.9934 17.5095 27.5788 22.5442 22.5442C27.5788 17.5095 33.9934 14.0808 40.9768 12.6917C47.9601 11.3027 55.1985 12.0156 61.7766 14.7403C68.3547 17.4651 73.9772 22.0793 77.9329 27.9995C81.8886 33.9196 84 40.8799 84 48C83.9894 57.5445 80.1932 66.6951 73.4442 73.4442C66.6951 80.1932 57.5445 83.9894 48 84Z" fill="var(--fill-0, white)"/>
<path id="Vector_2" d="M64.968 31.028C64.2179 30.2781 63.2007 29.8569 62.14 29.8569C61.0793 29.8569 60.0621 30.2781 59.312 31.028L48 42.344L36.688 31.028C36.319 30.646 35.8776 30.3412 35.3896 30.1316C34.9016 29.922 34.3767 29.8116 33.8456 29.807C33.3145 29.8024 32.7878 29.9036 32.2962 30.1047C31.8046 30.3058 31.358 30.6028 30.9824 30.9784C30.6068 31.354 30.3098 31.8006 30.1087 32.2922C29.9076 32.7838 29.8064 33.3105 29.811 33.8416C29.8156 34.3727 29.926 34.8976 30.1356 35.3856C30.3452 35.8736 30.65 36.315 31.032 36.684L42.344 48L31.032 59.316C30.65 59.685 30.3452 60.1264 30.1356 60.6144C29.926 61.1024 29.8156 61.6273 29.811 62.1584C29.8064 62.6895 29.9076 63.2162 30.1087 63.7078C30.3098 64.1994 30.6068 64.646 30.9824 65.0216C31.358 65.3972 31.8046 65.6942 32.2962 65.8953C32.7878 66.0964 33.3145 66.1976 33.8456 66.193C34.3767 66.1884 34.9016 66.078 35.3896 65.8684C35.8776 65.6588 36.319 65.354 36.688 64.972L48 53.656L59.312 64.972C59.681 65.354 60.1224 65.6588 60.6104 65.8684C61.0984 66.078 61.6233 66.1884 62.1544 66.193C62.6855 66.1976 63.2122 66.0964 63.7038 65.8953C64.1954 65.6942 64.642 65.3972 65.0176 65.0216C65.3931 64.646 65.6902 64.1994 65.8913 63.7078C66.0924 63.2162 66.1936 62.6895 66.189 62.1584C66.1844 61.6273 66.074 61.1024 65.8644 60.6144C65.6548 60.1264 65.35 59.685 64.968 59.316L53.656 48L64.968 36.684C65.7179 35.9339 66.1391 34.9167 66.1391 33.856C66.1391 32.7953 65.7179 31.7781 64.968 31.028Z" fill="var(--fill-0, white)"/>
</g>
</svg>
