<svg preserveAspectRatio="none" width="100%" height="100%" overflow="visible" style="display: block;" viewBox="0 0 201.667 201.667" fill="none" xmlns="http://www.w3.org/2000/svg">
<g id="Layer 2">
<path id="Vector" d="M100.833 0C80.8904 0 61.3953 5.91377 44.8134 16.9935C28.2314 28.0732 15.3074 43.8212 7.67553 62.2461C0.0436899 80.671 -1.95315 100.945 1.93753 120.505C5.82821 140.065 15.4317 158.031 29.5334 172.133C43.6352 186.235 61.602 195.839 81.1618 199.729C100.722 203.62 120.996 201.623 139.421 193.991C157.846 186.359 173.594 173.435 184.673 156.853C195.753 140.271 201.667 120.776 201.667 100.833C201.635 74.1004 191.002 48.4713 172.098 29.5682C153.195 10.6651 127.566 0.0315377 100.833 0ZM139.718 126.766C140.594 127.611 141.292 128.623 141.773 129.741C142.253 130.86 142.506 132.063 142.517 133.28C142.527 134.497 142.295 135.704 141.834 136.83C141.373 137.957 140.693 138.98 139.832 139.841C138.971 140.702 137.948 141.382 136.821 141.843C135.695 142.304 134.488 142.536 133.271 142.526C132.053 142.515 130.851 142.262 129.732 141.782C128.614 141.301 127.602 140.603 126.757 139.728L100.833 113.795L74.91 139.728C73.1812 141.397 70.8657 142.321 68.4622 142.3C66.0587 142.279 63.7596 141.315 62.06 139.616C60.3605 137.916 59.3964 135.617 59.3755 133.214C59.3546 130.81 60.2786 128.495 61.9484 126.766L87.8717 100.833L61.9484 74.9008C61.0729 74.0552 60.3745 73.0437 59.8941 71.9254C59.4137 70.807 59.1608 69.6042 59.1503 68.387C59.1397 67.1699 59.3716 65.9628 59.8325 64.8363C60.2934 63.7097 60.9741 62.6862 61.8348 61.8255C62.6954 60.9649 63.7189 60.2842 64.8455 59.8233C65.972 59.3624 67.1791 59.1305 68.3962 59.141C69.6134 59.1516 70.8162 59.4045 71.9346 59.8849C73.053 60.3653 74.0644 61.0637 74.91 61.9392L100.833 87.8717L126.757 61.9392C127.602 61.0637 128.614 60.3653 129.732 59.8849C130.851 59.4045 132.053 59.1516 133.271 59.141C134.488 59.1305 135.695 59.3624 136.821 59.8233C137.948 60.2842 138.971 60.9649 139.832 61.8255C140.693 62.6862 141.373 63.7097 141.834 64.8363C142.295 65.9628 142.527 67.1699 142.517 68.387C142.506 69.6042 142.253 70.807 141.773 71.9254C141.292 73.0437 140.594 74.0552 139.718 74.9008L113.795 100.833L139.718 126.766Z" fill="var(--fill-0, #5C5C5C)"/>
</g>
</svg>
