<svg preserveAspectRatio="none" width="100%" height="100%" overflow="visible" style="display: block;" viewBox="0 0 191.667 191.667" fill="none" xmlns="http://www.w3.org/2000/svg">
<g id="fi_87932" clip-path="url(#clip0_0_4)">
<path id="Vector" d="M95.833 0C42.991 0 0 42.99 0 95.833C0 148.676 42.991 191.667 95.833 191.667C148.675 191.667 191.666 148.676 191.666 95.833C191.666 42.99 148.676 0 95.833 0ZM150.862 79.646L90.655 139.853C88.095 142.413 84.692 143.822 81.072 143.822C77.452 143.822 74.049 142.413 71.489 139.853L40.804 109.168C38.244 106.608 36.834 103.205 36.834 99.585C36.834 95.964 38.244 92.561 40.804 90.001C43.363 87.441 46.766 86.031 50.387 86.031C54.007 86.031 57.411 87.441 59.97 90.002L81.071 111.102L131.694 60.479C134.254 57.919 137.657 56.51 141.277 56.51C144.897 56.51 148.3 57.919 150.86 60.479C156.146 65.765 156.146 74.362 150.862 79.646Z" fill="url(#paint0_linear_0_4)"/>
</g>
<defs>
<linearGradient id="paint0_linear_0_4" x1="0" y1="95.8335" x2="191.666" y2="95.8335" gradientUnits="userSpaceOnUse">
<stop stop-color="#FF5410"/>
<stop offset="0.754808" stop-color="#FF733B"/>
</linearGradient>
<clipPath id="clip0_0_4">
<rect width="191.667" height="191.667" fill="white"/>
</clipPath>
</defs>
</svg>
