<svg preserveAspectRatio="none" width="100%" height="100%" overflow="visible" style="display: block;" viewBox="0 0 97.0083 97.0091" fill="none" xmlns="http://www.w3.org/2000/svg">
<g id="Group">
<path id="_x35_" d="M85.1296 17.9799C83.3685 19.3977 81.4573 20.6436 79.4369 21.675C80.9404 26.2286 81.8642 31.5773 82.015 37.3132H93.9369C93.5504 29.9025 90.3919 23.2429 85.4737 18.3231C85.3668 18.2155 85.238 18.0867 85.1296 17.9799ZM93.9377 40.3421H82.0158C81.8869 45.8628 81.0064 51.0182 79.5885 55.4643C79.5453 55.6371 79.4801 55.8083 79.4165 55.9804C81.4573 57.011 83.3685 58.2576 85.1296 59.6755C86.934 57.9348 88.5239 55.9372 89.8129 53.7888C92.2197 49.8148 93.68 45.2391 93.9377 40.3421ZM82.8107 61.6935C81.4148 60.5985 79.9318 59.6535 78.3646 58.8153C76.8611 62.3809 74.9484 65.3242 72.7788 67.3862C72.1779 67.9667 71.2321 67.9447 70.6516 67.343C70.0711 66.7413 70.0939 65.7751 70.6948 65.1954C72.6068 63.3903 74.2618 60.791 75.6145 57.5695C75.4857 57.5263 75.3569 57.4839 75.228 57.4195C72.4984 56.3888 69.5566 55.7651 66.4852 55.6151V56.0228C66.4852 56.8602 65.819 57.5483 64.9817 57.5483C64.1443 57.5483 63.4554 56.8609 63.4554 56.0228V54.0472V40.3421H56.3449C55.5075 40.3421 54.8414 39.6548 54.8414 38.8167C54.8414 37.9785 55.5075 37.3132 56.3449 37.3132H63.4554V25.0904C61.0714 24.9616 58.7297 24.5963 56.4957 23.9726C55.4006 23.6725 54.348 23.3285 53.3167 22.92C51.8132 27.4957 50.9546 32.952 50.9546 38.8167C50.9546 39.6541 50.2665 40.3421 49.4283 40.3421C48.6122 40.3421 47.9248 39.6548 47.9248 38.8167C47.9248 32.5011 48.891 26.6151 50.5234 21.675C49.8792 21.3309 49.2563 20.9876 48.6334 20.6216C47.9036 20.1927 47.6672 19.2689 48.0968 18.5596C48.5265 17.8291 49.4511 17.5926 50.1596 18.0223C50.6317 18.3012 51.1038 18.5808 51.5979 18.8172C51.9208 18.0435 52.2641 17.2918 52.6505 16.5612C53.7031 14.4568 54.949 12.6297 56.3017 11.1474C53.7888 11.9424 51.4259 13.0594 49.2563 14.456C48.547 14.9069 47.624 14.6925 47.1723 14.0044C46.7214 13.2951 46.9147 12.3501 47.6232 11.8992C50.1589 10.2668 52.9499 8.97856 55.9144 8.09723C58.7934 7.25984 61.8436 6.80819 64.9801 6.80819C73.8299 6.80819 81.821 10.3737 87.6213 16.174C93.4201 21.9735 97.0083 29.9866 97.0083 38.8152C97.0083 44.8723 95.3328 50.5218 92.4114 55.334C89.4037 60.3173 85.0864 64.4209 79.9106 67.149C79.1588 67.5567 78.2555 67.2566 77.8698 66.5261C77.4841 65.7956 77.7614 64.8718 78.4927 64.486C79.803 63.7995 83.0904 61.5867 82.8107 61.6935ZM73.6586 11.1482C75.0128 12.6305 76.2367 14.4568 77.3098 16.562C77.675 17.2925 78.0191 18.0443 78.3639 18.818C79.931 18.0018 81.4141 17.0349 82.81 15.9603C80.1031 13.8551 77.0097 12.2015 73.6586 11.1482ZM76.6459 54.7338L76.7096 54.5617C78.0418 50.4157 78.8572 45.5612 78.9876 40.3414H66.4852V52.5641C69.9218 52.7362 73.2297 53.4447 76.3011 54.6042C76.4299 54.6474 76.5376 54.6906 76.6459 54.7338ZM78.9876 37.3124C78.8572 32.0062 78.0198 27.1085 76.6459 22.92C76.5376 22.9632 76.4087 23.0057 76.3011 23.0489C73.2297 24.2091 69.9218 24.9184 66.4852 25.0897V37.3124H78.9876ZM66.4852 10.0099V22.0395C69.5566 21.8894 72.4992 21.2445 75.228 20.2139C75.3569 20.1707 75.4857 20.1283 75.5918 20.0851C75.2917 19.3333 74.9689 18.624 74.6256 17.9367C72.4128 13.6186 69.5786 10.7405 66.4852 10.0099ZM63.4554 22.0395V10.0099C60.362 10.7405 57.5278 13.6186 55.3355 17.9367C54.9922 18.624 54.6694 19.3333 54.348 20.0851C55.3143 20.4496 56.2812 20.7936 57.2906 21.0513C59.2662 21.6098 61.3283 21.9326 63.4554 22.0395Z" fill="var(--fill-0, #FF6A29)"/>
<path id="_x34_" d="M18.7104 43.5424L21.7606 53.1439L27.6033 48.891L21.0513 41.5228L18.7104 43.5424ZM22.3615 38.4294L29.8366 46.8502L37.2904 38.4294L37.3117 38.4082C37.8482 37.7641 38.8152 37.6989 39.4381 38.2582L43.4984 41.76L53.2295 46.0129C55.2483 46.8934 56.8382 48.2901 57.9333 50.008C59.051 51.7692 59.652 53.8312 59.652 56.0228V61.5435C59.652 62.3809 58.9654 63.0689 58.1273 63.0689C57.3103 63.0689 56.6237 62.3816 56.6237 61.5435V56.0228C56.6237 54.3905 56.1948 52.8862 55.3999 51.6411C54.6049 50.4165 53.4667 49.4283 52.0269 48.7834L43.6068 45.1103L40.1269 56.0652C39.8261 57.0534 38.6234 57.4187 37.8065 56.817L31.3409 52.1125V62.6809C31.3409 63.5183 30.6755 64.2064 29.8374 64.2064C29 64.2064 28.3126 63.5191 28.3126 62.6809V52.1133L21.8682 56.8178C21.8682 56.8178 21.4597 57.0322 21.4173 57.0322C20.6224 57.2906 19.7842 56.8602 19.5266 56.066L16.0467 45.1111L7.62587 48.7842C6.18678 49.4291 5.04855 50.4165 4.27482 51.6419C3.45866 52.8877 3.02898 54.3912 3.02898 56.0236V81.0276C3.02898 81.865 2.36286 82.5531 1.52548 82.5531C0.688094 82.5531 0 81.8657 0 81.0276V56.0228C0 53.8312 0.601703 51.77 1.71872 50.008C2.81452 48.2893 4.42563 46.8934 6.42322 46.0129L16.1535 41.76L20.2131 38.2582C20.8361 37.6997 21.803 37.7648 22.3403 38.4082L22.3615 38.4294ZM11.7067 67.6871C11.7067 66.8497 12.394 66.1836 13.2102 66.1836C14.0476 66.1836 14.7357 66.8497 14.7357 67.6871V81.0268C14.7357 81.8642 14.0483 82.5523 13.2102 82.5523C12.394 82.5523 11.7067 81.865 11.7067 81.0268V67.6871ZM38.6015 41.5228L32.0494 48.891L37.8921 53.1439L40.9423 43.5424L38.6015 41.5228Z" fill="var(--fill-0, white)"/>
<path id="_x33_" d="M63.1546 65.2173H29.5585C28.2694 65.2173 27.0236 66.3344 26.8091 67.5794L22.5555 91.7681C22.3411 92.9919 23.0716 93.9801 24.3599 93.9801H57.2042C58.7077 93.9801 60.1468 92.6918 60.4045 91.2308L64.6376 67.0641C64.6581 66.9565 64.6808 66.8277 64.6808 66.6989C64.6808 65.7963 64.0352 65.2173 63.1546 65.2173ZM45.3899 77.9979C46.2273 77.9979 46.9154 78.6852 46.9154 79.5233C46.9154 80.3615 46.2281 81.0268 45.3899 81.0268C44.5518 81.0268 43.8864 80.3607 43.8864 79.5233C43.8864 78.6859 44.5518 77.9979 45.3899 77.9979ZM29.5585 62.1884H63.1546C63.4342 62.1884 63.7123 62.2096 63.992 62.274C66.2048 62.6605 67.7083 64.4868 67.7083 66.6989C67.7083 66.9997 67.6651 67.2794 67.6226 67.5794L63.391 91.7681C62.8742 94.6462 60.1468 97.0091 57.2042 97.0091H24.3599C21.6105 97.0091 19.5053 94.9259 19.5053 92.1758C19.5053 91.8757 19.5266 91.5741 19.5698 91.2308L23.8226 67.0641C24.2955 64.3792 26.8296 62.1884 29.5585 62.1884Z" fill="var(--fill-0, white)"/>
<path id="_x32_" d="M21.6962 86.4187C22.5336 86.4187 23.2216 87.0848 23.2216 87.9222C23.2216 88.0298 23.2004 88.1366 23.1785 88.2442L22.5555 91.7673C22.5343 91.8961 22.5343 92.0462 22.5343 92.175C22.5343 92.6479 22.6631 93.0556 22.9208 93.3572C23.1572 93.6573 23.5225 93.8505 23.9734 93.9369C24.081 93.9581 24.2098 93.9581 24.3387 93.9801L24.3599 97.0091H10.16C9.1718 97.0091 8.1624 96.7302 7.34623 96.1929C6.53007 95.6556 5.90715 94.8827 5.64949 93.8513L4.27482 88.2874C4.08158 87.4713 4.57567 86.6551 5.39184 86.4619C5.49945 86.4187 5.62827 86.4187 5.75634 86.4187H21.6962ZM19.8918 89.4476H7.6683L8.59208 93.142C8.63527 93.3572 8.78532 93.5292 9.00054 93.658C9.32261 93.8725 9.73031 93.9801 10.16 93.9801H19.8266C19.6114 93.4224 19.5046 92.8207 19.5046 92.1758C19.5046 91.8757 19.5258 91.5741 19.569 91.2308L19.8918 89.4476Z" fill="var(--fill-0, white)"/>
<path id="_x31_" d="M23.2209 35.6801L22.7056 39.5896C22.5768 40.427 21.825 41.0075 21.0081 40.8999C20.1707 40.7711 19.5902 40.0193 19.6978 39.1812L20.4928 33.3816L20.1063 33.0384C18.6672 31.7705 17.5714 30.2451 16.8409 28.5271C16.0891 26.8084 15.7239 24.9184 15.7239 22.8988V13.7263C15.7239 9.62346 17.1417 6.20724 19.6334 3.77997C22.1039 1.37391 25.6269 0 29.8366 0C34.0258 0 37.5489 1.37391 40.0193 3.77997C42.511 6.20724 43.9289 9.62346 43.9289 13.7263V22.8988C43.9289 24.832 43.5848 26.744 42.8119 28.5271C42.0813 30.2458 40.9855 31.7705 39.5464 33.0384L39.16 33.3816L39.9549 39.1812C40.0625 40.0186 39.482 40.7711 38.6659 40.8999C37.8285 41.0083 37.0767 40.4278 36.9691 39.5896L36.4326 35.6801C35.7453 36.153 35.0579 36.5175 34.3274 36.7971C31.8137 37.786 27.8398 37.786 25.3269 36.7971C24.5956 36.5182 23.9082 36.153 23.2209 35.6801ZM18.796 12.7381C20.3639 13.2541 23.737 13.727 25.4769 9.45144C25.799 8.67771 26.6795 8.3132 27.4533 8.63527C27.883 8.8073 28.1186 9.10815 28.2907 9.51585C28.3119 9.53707 31.062 17.4214 40.8999 14.9509V13.727C40.8999 10.4836 39.8261 7.79789 37.9141 5.95034C36.0022 4.08158 33.2096 3.02822 29.8374 3.02822C26.4431 3.02822 23.6506 4.08158 21.7386 5.94959C20.0419 7.60389 18.9893 9.92431 18.796 12.7381ZM40.8999 18.0655C33.0164 19.7842 28.806 15.9383 26.8508 13.1465C24.3803 16.4764 20.9649 16.39 18.7521 15.8527V22.8988C18.7521 24.5099 19.0529 26.0134 19.6114 27.3244C20.1699 28.6347 21.0073 29.8161 22.1243 30.7823L23.9507 32.4147C24.7456 33.124 25.5618 33.6385 26.4424 33.9826C28.2035 34.6919 31.4477 34.6919 33.2089 33.9826C34.0894 33.6385 34.9056 33.1232 35.7218 32.4147L37.5481 30.7823C38.6431 29.8161 39.4169 28.7628 39.9754 27.4525C40.6195 26.0559 40.8991 24.4235 40.8991 22.8981L40.8999 18.0655Z" fill="var(--fill-0, white)"/>
</g>
</svg>
