<svg preserveAspectRatio="none" width="100%" height="100%" overflow="visible" style="display: block;" viewBox="0 0 45.0664 55.466" fill="none" xmlns="http://www.w3.org/2000/svg">
<g id="Group">
<path id="Vector" d="M42.4889 50.7254C41.3976 49.5534 39.9338 48.7958 38.3467 48.5815L44.9654 30.0492C45.2869 29.1464 44.8156 28.1541 43.9128 27.8325C43.9024 27.8289 43.8918 27.8252 43.8812 27.8217L39.6545 26.4127L36.3716 8.3567C36.2219 7.53229 35.5039 6.93322 34.6663 6.93322H27.7331V1.7333C27.7331 0.776087 26.957 0 25.9998 0H19.0665C18.1093 0 17.3332 0.776087 17.3332 1.7333V6.93322H10.4C9.56218 6.93322 8.84437 7.53251 8.69466 8.3567L5.41178 26.4127L1.18512 27.8217C0.276216 28.1257 -0.213876 29.1089 0.0901026 30.0176C0.0935692 30.0282 0.0972525 30.0386 0.100936 30.0492L6.71956 48.5821C5.1351 48.7979 3.67393 49.5552 2.58411 50.7254C1.95687 51.5153 1.00875 51.9829 0.000187401 51.9991V55.4657C1.87844 55.4556 3.66699 54.6608 4.93361 53.2738C5.56084 52.4832 6.5094 52.0154 7.5184 51.9991C7.88456 51.9961 8.2479 52.0639 8.58849 52.1987C8.60301 52.2052 8.61233 52.219 8.62706 52.2251C9.17067 52.4959 9.66423 52.8571 10.0869 53.2933C11.3665 54.6684 13.1571 55.4545 15.0355 55.4657C16.9133 55.4553 18.7015 54.6602 19.9672 53.2729C21.0577 51.8486 23.0963 51.5777 24.5206 52.668C24.7477 52.8417 24.9509 53.045 25.1249 53.272C26.3893 54.6598 28.1766 55.4551 30.054 55.4657C31.9313 55.4545 33.7205 54.668 34.9982 53.2924C35.4172 52.8595 35.9062 52.5001 36.4446 52.2294C36.4602 52.2229 36.4702 52.2082 36.4854 52.2013C36.8268 52.0648 37.1915 51.9963 37.5592 51.9994C38.5658 52.0156 39.5119 52.4832 40.1364 53.2731C41.4015 54.6602 43.1889 55.4551 45.0661 55.466V51.9994C44.0595 51.9829 43.1133 51.5153 42.4889 50.7254ZM20.7998 3.46661H24.2664V6.93322H20.7998V3.46661ZM20.7998 48.7585C19.5887 49.1331 18.493 49.81 17.616 50.7254C16.5227 52.1512 14.4804 52.4208 13.0546 51.3275C12.8284 51.1541 12.626 50.9516 12.4525 50.7254C11.9145 50.1997 11.318 49.7374 10.6747 49.3476L3.961 30.5504L20.7998 24.9379V48.7585ZM21.9848 20.8885L9.16243 25.1626L11.8465 10.3998H33.2198L35.9039 25.1626L23.0815 20.8885C22.7255 20.77 22.3407 20.77 21.9848 20.8885ZM34.3881 49.3589C33.7524 49.7469 33.1626 50.2056 32.6301 50.7262C31.5418 52.1491 29.506 52.4201 28.0832 51.3318C27.8555 51.1576 27.6518 50.954 27.4776 50.7262C26.5954 49.8015 25.4893 49.1203 24.2667 48.7488V24.9379L41.1055 30.5504L34.3881 49.3589Z" fill="var(--fill-0, white)"/>
</g>
</svg>
