<svg preserveAspectRatio="none" width="100%" height="100%" overflow="visible" style="display: block;" viewBox="0 0 79.7277 51.9993" fill="none" xmlns="http://www.w3.org/2000/svg">
<g id="Group">
<path id="Vector" d="M78.1493 28.9516L72.7793 23.5807C68.7868 19.5933 63.3789 17.3473 57.7364 17.333H44.2933L36.1361 4.2817C35.8192 3.77492 35.2639 3.46683 34.6661 3.46661H29.4662C28.5085 3.46704 27.7324 4.24378 27.7329 5.20165C27.7329 5.34291 27.7502 5.48353 27.7844 5.62067L30.7126 17.333H16.8895L12.0603 1.23563C11.8404 0.502225 11.1653 0 10.3998 0H1.7333C0.776087 0 0 0.776087 0 1.7333V19.0663H0.0162507C0.0106175 19.5239 0.187414 19.9651 0.507859 20.2918L11.341 31.125C15.8106 35.6237 21.894 38.147 28.2355 38.1327H28.7076L24.4008 47.8292C24.0123 48.7039 24.4064 49.7281 25.2811 50.1168C25.332 50.1393 25.3838 50.1594 25.4367 50.177L30.6331 51.9103C31.3611 52.1527 32.1617 51.888 32.6017 51.2594L41.7848 38.1327H74.3416C77.3108 38.1381 79.722 35.7358 79.7277 32.7666C79.7303 31.3355 79.1622 29.9626 78.1493 28.9516ZM33.7054 6.93322L40.2053 17.333H34.2863L31.6861 6.93322H33.7054ZM3.46661 3.46661H9.11003L13.27 17.333H3.46661V3.46661ZM30.5029 48.2125L28.3439 47.4923L34.0406 34.6661H39.9793L30.5029 48.2125ZM76.1198 33.4779C75.831 34.2046 75.1234 34.6774 74.3416 34.6661H44.2099L44.7273 33.9264C45.2759 33.1419 45.0845 32.0609 44.3 31.5123C44.0088 31.3089 43.6624 31.1995 43.307 31.1995H32.9139C32.2286 31.1995 31.6077 31.6031 31.3297 32.2295L30.2475 34.6661H28.2355C22.814 34.678 17.613 32.5203 13.7919 28.6741L5.9175 20.7997H57.7364C61.5154 20.8159 65.192 22.0297 68.238 24.2663H55.4657V27.7329H72.0277L75.7025 31.4077C76.2576 31.9444 76.4238 32.7681 76.1198 33.4779Z" fill="var(--fill-0, #FF6A29)"/>
</g>
</svg>
