<svg width="56" height="40" viewBox="0 0 56 40" fill="none" xmlns="http://www.w3.org/2000/svg">
<path d="M55.2829 18.2911L50.083 7.8913C49.7894 7.30393 49.189 6.93322 48.5325 6.93322H38.1327V1.7333C38.1327 0.776087 37.3566 0 36.3994 0H1.7333C0.776087 0 0 0.776087 0 1.7333V32.9328C0 33.89 0.776087 34.6661 1.7333 34.6661H8.91265C9.85123 38.3593 13.6062 40.5923 17.2992 39.6537C19.7501 39.0308 21.6639 37.117 22.2868 34.6661H34.9122C35.8508 38.3593 39.6058 40.5923 43.2988 39.6537C45.7497 39.0308 47.6635 37.117 48.2864 34.6661H53.7324C54.6897 34.6661 55.4657 33.89 55.4657 32.9328V19.0663C55.4657 18.7973 55.4031 18.5318 55.2829 18.2911ZM15.5997 36.3994C13.6851 36.3994 12.1331 34.8474 12.1331 32.9328C12.1331 31.0181 13.6851 29.4662 15.5997 29.4662C17.5144 29.4662 19.0663 31.0181 19.0663 32.9328C19.0644 34.8466 17.5135 36.3974 15.5997 36.3994ZM34.6661 31.1995H22.2868C21.501 28.1463 18.7524 26.0091 15.5997 25.9996C12.4471 26.0091 9.69849 28.1463 8.91265 31.1995H3.46661V3.46661H34.6661V31.1995ZM45.0659 10.3998H47.4611L50.928 17.333H45.0659V10.3998ZM41.5993 36.3994C39.6847 36.3994 38.1327 34.8474 38.1327 32.9328C38.1327 31.0181 39.6847 29.4662 41.5993 29.4662C43.514 29.4662 45.0659 31.0181 45.0659 32.9328C45.064 34.8466 43.5131 36.3974 41.5993 36.3994ZM51.9991 31.1995H48.2864C47.5006 28.1463 44.752 26.0091 41.5993 25.9996C40.3784 26.0065 39.1818 26.3395 38.1327 26.9642V10.3998H41.5993V19.0663C41.5993 20.0236 42.3754 20.7997 43.3326 20.7997H51.9991V31.1995Z" fill="white"/>
</svg>
