<svg preserveAspectRatio="none" width="100%" height="100%" overflow="visible" style="display: block;" viewBox="0 0 60 60" fill="none" xmlns="http://www.w3.org/2000/svg">
<g id="fi_1940690" clip-path="url(#clip0_0_4)">
<path id="Vector" d="M58.8309 18.3554C59.5325 18.1061 60.0008 17.4417 60 16.6971C59.9991 15.9525 59.5291 15.2893 58.8271 15.0416L30.5849 5.07703C30.2065 4.94344 29.7936 4.94344 29.4152 5.07703L1.17305 15.0416C0.470859 15.2892 0.0009375 15.9525 0 16.6971C-0.0009375 17.4417 0.467461 18.1061 1.16906 18.3554L12.3568 22.3328V33.7992C12.3568 35.6917 14.3311 37.2921 18.2248 38.5559C21.6186 39.6574 25.8006 40.2641 30.0001 40.2641C34.1996 40.2641 38.3815 39.6574 41.7755 38.5559C45.6691 37.2921 47.6434 35.6918 47.6434 33.7992V22.3328L52.2626 20.6906V36.5794C50.2084 37.3057 48.7323 39.2661 48.7323 41.5659C48.7323 43.8656 50.2084 45.8262 52.2626 46.5525V53.2656C52.2626 54.2364 53.0496 55.0234 54.0204 55.0234C54.9912 55.0234 55.7782 54.2364 55.7782 53.2656V46.5525C57.8324 45.8262 59.3085 43.8657 59.3085 41.5659C59.3085 39.2663 57.8324 37.3057 55.7782 36.5794V19.4407L58.8309 18.3554ZM54.0203 43.3383C53.0429 43.3383 52.2478 42.5432 52.2478 41.5658C52.2478 40.5885 53.0429 39.7934 54.0203 39.7934C54.9976 39.7934 55.7927 40.5885 55.7927 41.5658C55.7927 42.5432 54.9976 43.3383 54.0203 43.3383ZM30 8.59863L52.9768 16.7055L30 24.8739L7.02316 16.7054L30 8.59863ZM44.1277 33.5343C43.7907 33.8739 42.5846 34.6873 39.8625 35.4639C36.9585 36.2923 33.4559 36.7485 30 36.7485C26.5441 36.7485 23.0416 36.2923 20.1375 35.4639C17.4154 34.6873 16.2093 33.874 15.8723 33.5343V23.5826L29.4111 28.3957C29.6016 28.4634 29.8008 28.4973 29.9999 28.4973C30.1991 28.4973 30.3982 28.4634 30.5886 28.3957L44.1274 23.5826V33.5343H44.1277Z" fill="var(--fill-0, white)"/>
</g>
<defs>
<clipPath id="clip0_0_4">
<rect width="60" height="60" fill="white"/>
</clipPath>
</defs>
</svg>
