<svg width="116" height="116" viewBox="0 0 116 116" fill="none" xmlns="http://www.w3.org/2000/svg">
<rect width="116" height="116" fill="#EBEBEB"/>
<g id="CURSO IMPORTACI&#195;&#147;N">
<rect width="3973" height="29038" transform="translate(-230 -2360)" fill="black"/>
<g id="Group 410">
<g id="fi_4211344">
<g id="01-Play">
<path id="Vector" d="M94.8662 44.8413L32.625 8.88125C30.8458 7.82862 28.8197 7.26581 26.7525 7.25C23.5029 7.25 20.3865 8.54088 18.0887 10.8387C15.7909 13.1365 14.5 16.2529 14.5 19.5025V96.6787C14.5004 98.8352 15.0785 100.952 16.1741 102.809C17.2697 104.667 18.8429 106.197 20.73 107.24C22.6172 108.284 24.7494 108.803 26.905 108.743C29.0606 108.683 31.1609 108.047 32.9875 106.901L95.3013 67.5337C97.2388 66.3212 98.8292 64.6273 99.9174 62.6173C101.006 60.6073 101.555 58.3496 101.511 56.0643C101.467 53.779 100.832 51.544 99.6674 49.5772C98.503 47.6103 96.8488 45.9787 94.8662 44.8413Z" fill="url(#paint0_linear_0_1)"/>
</g>
</g>
</g>
</g>
<defs>
<linearGradient id="paint0_linear_0_1" x1="14.5" y1="57.9988" x2="101.513" y2="57.9988" gradientUnits="userSpaceOnUse">
<stop stop-color="#FF5410"/>
<stop offset="0.754808" stop-color="#FF733B"/>
</linearGradient>
</defs>
</svg>
