<svg preserveAspectRatio="none" width="100%" height="100%" overflow="visible" style="display: block;" viewBox="0 0 207 207" fill="none" xmlns="http://www.w3.org/2000/svg">
<g id="fi_330651">
<path id="Vector" d="M191.497 35.6893H15.5028C6.94057 35.6893 0 42.6299 0 51.1921V155.808C0 164.37 6.94057 171.311 15.5028 171.311H191.497C200.059 171.311 207 164.37 207 155.808V51.1921C207 42.6299 200.059 35.6893 191.497 35.6893Z" fill="var(--fill-0, #FF4B55)"/>
<g id="Group">
<path id="Vector_2" d="M34.3681 56.8971L37.7706 67.0991L48.5249 67.1824C49.9173 67.1929 50.4947 68.9702 49.3743 69.797L40.7232 76.1853L43.9669 86.4391C44.3865 87.7668 42.8753 88.8645 41.7424 88.0551L32.9935 81.801L24.2445 88.0546C23.1116 88.8645 21.6004 87.766 22.02 86.4387L25.2637 76.1849L16.6126 69.797C15.4923 68.9698 16.0696 67.1929 17.462 67.1824L28.2163 67.0991L31.6188 56.8971C32.0595 55.5763 33.9278 55.5763 34.3681 56.8971Z" fill="var(--fill-0, #FFE15A)"/>
<path id="Vector_3" d="M73.4199 59.411L75.8598 62.7376L79.7973 61.5061C80.3071 61.3468 80.7264 61.9282 80.4142 62.3612L78.0038 65.7092L80.3916 69.0733C80.7009 69.5087 80.2776 70.0873 79.769 69.9244L75.8396 68.6666L73.3779 71.9774C73.0593 72.4059 72.378 72.1819 72.376 71.6483L72.3578 67.5224L68.4483 66.204C67.9421 66.033 67.9445 65.3166 68.4519 65.1492L72.3695 63.8571L72.4156 59.7316C72.4213 59.1992 73.1041 58.9804 73.4199 59.411Z" fill="var(--fill-0, #FFE15A)"/>
<path id="Vector_4" d="M58.5652 49.4936L62.6664 49.9392L64.4162 46.203C64.643 45.7195 65.355 45.8024 65.4638 46.3251L66.3071 50.3633L70.401 50.8727C70.9311 50.9386 71.0722 51.6412 70.6084 51.9069L67.0284 53.9566L67.8091 58.0077C67.9101 58.5325 67.2855 58.8834 66.8897 58.5248L63.8336 55.7533L60.2224 57.7473C59.7551 58.0057 59.2275 57.5197 59.4466 57.0325L61.1378 53.2693L58.125 50.4506C57.7356 50.0875 58.0344 49.4362 58.5652 49.4936Z" fill="var(--fill-0, #FFE15A)"/>
<path id="Vector_5" d="M65.0493 89.4762L62.6098 92.8035L58.6724 91.572C58.1626 91.4127 57.7433 91.9937 58.0554 92.4271L60.4658 95.7751L58.0781 99.1393C57.7688 99.5747 58.1921 100.153 58.7007 99.9903L62.6296 98.7325L65.0914 102.043C65.41 102.472 66.0912 102.248 66.0932 101.714L66.1114 97.5884L70.021 96.27C70.5272 96.0989 70.5247 95.3825 70.0173 95.2151L66.0997 93.923L66.0536 89.7976C66.0471 89.2643 65.3651 89.0452 65.0493 89.4762Z" fill="var(--fill-0, #FFE15A)"/>
<path id="Vector_6" d="M79.9032 80.1563L75.8016 80.6018L74.0518 76.8657C73.825 76.3822 73.1134 76.4651 73.0043 76.9878L72.1605 81.0259L68.0666 81.5354C67.5366 81.6013 67.3955 82.3039 67.8592 82.5695L71.4393 84.6193L70.6586 88.6704C70.5575 89.1952 71.1821 89.5461 71.5779 89.1875L74.634 86.416L78.2452 88.41C78.7126 88.6684 79.2402 88.1824 79.021 87.6952L77.3299 83.932L80.3427 81.1133C80.7336 80.7502 80.4349 80.0989 79.9032 80.1563Z" fill="var(--fill-0, #FFE15A)"/>
</g>
</g>
</svg>
